# xmcd
#
# Track frame offsets:
#	150
#	14871
#	29591
#	40562
#	53937
#	65527
#	80365
#	95452
#	107258
#	122542
#	133833
#	144419
#	159273
#	169991
#	181221
#	197054
#	208827
#	220052
#	233656
#	247010
#	261344
#	279713
#	290375
#	310668
#	324807
#
# Disc length: 4496 seconds
#
# Revision: 1
# Processed by: cddbd v1.5.2PL0 Copyright (c) Steve Scherf et al.
# Submitted via: audiograbber 1.83.01
#
DISCID=68118e19
DTITLE=Kenny Rogers - Golden Hits [2CD] (2014) [CD 1)
DYEAR=2014
DGENRE=Country
TTITLE0=After All (I Live My Life)
TTITLE1=All God's Lonely Children
TTITLE2=Always Leaving, Always Gone
TTITLE3=But You Know That I Love You
TTITLE4=Calico Silver
TTITLE5=Church Without A Name
TTITLE6=Conditions (Just Dropped In)
TTITLE7=Elvira
TTITLE8=For The Good Times
TTITLE9=Girl Get A Hold Of Yourself
TTITLE10=Goodtime Liberator
TTITLE11=Heed The Call
TTITLE12=Homemade Lies
TTITLE13=Hurry Up Love
TTITLE14=I Found A Reason
TTITLE15=I Just Want To Give My Love To You
TTITLE16=If Wishes Were Horses
TTITLE17=I'm Gonna Sing You A Sad Song Susy
TTITLE18=It's Gonna Be Better
TTITLE19=It's Raining In My Mind
TTITLE20=King Of Oak Street
TTITLE21=Last Few Threads Of Love
TTITLE22=Lay It Down
TTITLE23=Loser
TTITLE24=Love Woman
EXTD=Year: 2014\n\nMARO\n
EXTT0=
EXTT1=
EXTT2=
EXTT3=
EXTT4=
EXTT5=
EXTT6=
EXTT7=
EXTT8=
EXTT9=
EXTT10=
EXTT11=
EXTT12=
EXTT13=
EXTT14=
EXTT15=
EXTT16=
EXTT17=
EXTT18=
EXTT19=
EXTT20=
EXTT21=
EXTT22=
EXTT23=
EXTT24=
PLAYORDER=
